<?xml version="1.0" encoding="UTF-8"?>
<svg id="Ebene_1" xmlns="http://www.w3.org/2000/svg" version="1.1" viewBox="0 0 24 24">
  <!-- Generator: Adobe Illustrator 30.1.0, SVG Export Plug-In . SVG Version: 2.1.1 Build 136)  -->
  <path d="M8,12l4,4,4-4-1.4-1.4-1.6,1.6v-4.2h-2v4.2l-1.6-1.6-1.4,1.4ZM2,12c0-1.4.3-2.7.8-3.9s1.2-2.3,2.1-3.2,2-1.6,3.2-2.1,2.5-.8,3.9-.8,2.7.3,3.9.8,2.3,1.2,3.2,2.1,1.6,2,2.1,3.2.8,2.5.8,3.9-.3,2.7-.8,3.9-1.2,2.3-2.1,3.2-2,1.6-3.2,2.1-2.5.8-3.9.8-2.7-.3-3.9-.8-2.3-1.2-3.2-2.1-1.6-2-2.1-3.2-.8-2.5-.8-3.9ZM4,12c0,2.2.8,4.1,2.3,5.7s3.4,2.3,5.7,2.3,4.1-.8,5.7-2.3,2.3-3.4,2.3-5.7-.8-4.1-2.3-5.7-3.4-2.3-5.7-2.3-4.1.8-5.7,2.3-2.3,3.4-2.3,5.7Z"/>
</svg>